<?xml version="1.0" encoding="UTF-8"?>
<svg xmlns="http://www.w3.org/2000/svg" xmlns:xlink="http://www.w3.org/1999/xlink" viewBox="0 0 595.28 841.89">
  <defs>
    <style>
      .cls-1 {
        opacity: .1;
      }

      .cls-1, .cls-2, .cls-3, .cls-4, .cls-5, .cls-6, .cls-7, .cls-8, .cls-9, .cls-10, .cls-11, .cls-12, .cls-13, .cls-14, .cls-15, .cls-16, .cls-17, .cls-18, .cls-19, .cls-20, .cls-21, .cls-22, .cls-23, .cls-24, .cls-25, .cls-26, .cls-27, .cls-28, .cls-29, .cls-30, .cls-31, .cls-32, .cls-33, .cls-34, .cls-35, .cls-36, .cls-37, .cls-38, .cls-39 {
        stroke-width: 0px;
      }

      .cls-1, .cls-7, .cls-9, .cls-12, .cls-16, .cls-20, .cls-23, .cls-25, .cls-26, .cls-27, .cls-29, .cls-33, .cls-37, .cls-39 {
        fill: #231815;
      }

      .cls-2, .cls-6, .cls-40, .cls-27 {
        opacity: .12;
      }

      .cls-2, .cls-11, .cls-22, .cls-35 {
        fill: #fff;
      }

      .cls-3 {
        fill: #1a0804;
      }

      .cls-4 {
        fill: #fce7dd;
      }

      .cls-41 {
        clip-path: url(#clippath);
      }

      .cls-5 {
        fill: none;
      }

      .cls-42, .cls-26, .cls-38 {
        opacity: .06;
      }

      .cls-6 {
        fill: #f3a9aa;
        mix-blend-mode: multiply;
      }

      .cls-7 {
        opacity: .3;
      }

      .cls-8 {
        fill: #1d0704;
      }

      .cls-8, .cls-37 {
        opacity: .45;
      }

      .cls-10, .cls-43 {
        fill: #fdefe7;
      }

      .cls-11, .cls-16 {
        opacity: .8;
      }

      .cls-12 {
        opacity: .05;
      }

      .cls-13 {
        fill: url(#_名称未設定グラデーション_548);
      }

      .cls-14, .cls-15, .cls-19, .cls-38 {
        fill: #040000;
      }

      .cls-14, .cls-25 {
        opacity: .04;
      }

      .cls-15, .cls-23 {
        opacity: .08;
      }

      .cls-17 {
        fill: #901d22;
      }

      .cls-17, .cls-24, .cls-36 {
        opacity: .4;
      }

      .cls-44 {
        clip-path: url(#clippath-1);
      }

      .cls-45 {
        clip-path: url(#clippath-7);
      }

      .cls-46 {
        clip-path: url(#clippath-8);
      }

      .cls-47 {
        clip-path: url(#clippath-6);
      }

      .cls-48 {
        clip-path: url(#clippath-9);
      }

      .cls-18 {
        fill: #fad7cb;
      }

      .cls-49 {
        clip-path: url(#clippath-20);
      }

      .cls-50 {
        clip-path: url(#clippath-21);
      }

      .cls-51 {
        clip-path: url(#clippath-19);
      }

      .cls-52 {
        clip-path: url(#clippath-18);
      }

      .cls-20 {
        opacity: .35;
      }

      .cls-21 {
        fill: #f4aeac;
      }

      .cls-22, .cls-33 {
        opacity: .55;
      }

      .cls-24 {
        fill: url(#_名称未設定グラデーション_671);
      }

      .cls-28 {
        fill: #fafaf5;
      }

      .cls-53 {
        opacity: .7;
      }

      .cls-29 {
        opacity: .85;
      }

      .cls-30 {
        fill: url(#_名称未設定グラデーション_548-2);
      }

      .cls-31 {
        fill: #3058a7;
      }

      .cls-31, .cls-39 {
        opacity: .5;
      }

      .cls-54 {
        isolation: isolate;
      }

      .cls-32 {
        fill: #f5b1ad;
      }

      .cls-34 {
        fill: #f7c0c0;
      }

      .cls-36 {
        fill: url(#_名称未設定グラデーション_671-2);
      }
    </style>
    <clipPath id="clippath">
      <rect class="cls-5" width="595.28" height="841.89"/>
    </clipPath>
    <clipPath id="clippath-1">
      <path id="_輪郭-3" data-name="輪郭" class="cls-5" d="M579.73,618.56c-7.74-17.91-17.35-61.61-68.62-74.25-19.42-4.79-83.85-29.56-120.33-39.15-1.78-15.46-3.43-28.98-3.6-35.62-.45-17.05,6.29-67.55,6.29-67.55l-93.72-22.72v487.44l303.39-5.82,7.54-43.2s-23.22-181.23-30.96-199.14Z"/>
    </clipPath>
    <clipPath id="clippath-2">
      <path id="_輪郭_マスク" data-name="輪郭_マスク" class="cls-5" d="M299.69,49.96c-29.62.83-71.58,7.65-103.55,40.13-31.97,32.48-45.39,61.62-48.51,106.59-3.12,44.97,24.91,175.24,35.52,194.92,10.61,19.68,57.25,65.78,71.21,72.93,13.96,7.16,45.33,14.98,45.33,14.98"/>
    </clipPath>
    <clipPath id="clippath-6">
      <path id="_輪郭_マスク-3" data-name="輪郭_マスク" class="cls-10" d="M299.69,49.96c-29.62.83-71.58,7.65-103.55,40.13-31.97,32.48-45.39,61.62-48.51,106.59-3.12,44.97,24.91,175.24,35.52,194.92,10.61,19.68,57.25,65.78,71.21,72.93,13.96,7.16,45.33,14.98,45.33,14.98"/>
    </clipPath>
    <clipPath id="clippath-7">
      <path id="_輪郭-7" data-name="輪郭" class="cls-5" d="M299.72,43.95c-29.62.84-71.58,7.76-103.55,40.7-31.97,32.93-45.39,62.48-48.51,108.08-3.12,45.6,24.91,177.69,35.52,197.65,10.61,19.95,57.25,66.7,71.21,73.95,13.96,7.26,45.33,15.19,45.33,15.19"/>
    </clipPath>
    <radialGradient id="_名称未設定グラデーション_671" data-name="名称未設定グラデーション 671" cx="1.76" cy="339.82" fx="1.76" fy="339.82" r="34.91" gradientTransform="translate(202.78 -474.74) rotate(-180) scale(2.04 -2.34)" gradientUnits="userSpaceOnUse">
      <stop offset=".45" stop-color="#f9d3d2" stop-opacity=".4"/>
      <stop offset=".83" stop-color="#f9d3d2" stop-opacity=".2"/>
      <stop offset="1" stop-color="#fff" stop-opacity="0"/>
    </radialGradient>
    <clipPath id="clippath-8">
      <path id="_目_輪郭_マスク" data-name="目_輪郭_マスク" class="cls-5" d="M269.26,258.83s-7.18-12.84-14.34-14.49-28.29-.01-33.17.88-21.48,8.28-21.48,8.28c0,0,11.66,10.55,17.26,11.91,2.23.54,8.22,1.42,14.62,1.36,9.7-.1,17.47-.68,20.36-1.36,2.89-.68,16.75-6.59,16.75-6.59Z"/>
    </clipPath>
    <radialGradient id="_名称未設定グラデーション_548" data-name="名称未設定グラデーション 548" cx="363.02" cy="251.66" fx="363.02" fy="251.66" r="14.95" gradientTransform="translate(599.73) rotate(-180) scale(1 -1)" gradientUnits="userSpaceOnUse">
      <stop offset=".37" stop-color="#231815"/>
      <stop offset=".89" stop-color="#291e09"/>
      <stop offset=".94" stop-color="#280305" stop-opacity=".97"/>
      <stop offset="1" stop-color="#3d3115" stop-opacity=".97"/>
    </radialGradient>
    <clipPath id="clippath-9">
      <path id="_輪郭_マスク-4" data-name="輪郭_マスク" class="cls-5" d="M271.72,260.6s-.42-18.57-5.39-23.98c-4.96-5.41-12.9-14.73-32.42-14.74-19.04-.01-25.21,6.76-31.63,15.66-7.06,9.78-6.14,17.17-6.14,17.17,0,0,6.57-3.69,16.77-6.18,9.95-2.43,23.46-3.66,30.3-3.29,5.45.3,12.4,1.57,17.16,4.42,7.34,4.4,11.35,10.95,11.35,10.95Z"/>
    </clipPath>
    <clipPath id="clippath-10">
      <path id="_輪郭_マスク-5" data-name="輪郭_マスク" class="cls-5" d="M299.69,49.96c-29.62.83-71.58,7.65-103.55,40.13-31.97,32.48-45.39,61.62-48.51,106.59-3.12,44.97,24.91,175.24,35.52,194.92,10.61,19.68,57.25,65.78,71.21,72.93,13.96,7.16,45.33,14.98,45.33,14.98"/>
    </clipPath>
    <clipPath id="clippath-14">
      <path id="_輪郭_マスク-6" data-name="輪郭_マスク" class="cls-5" d="M299.75,49.96c29.62.83,71.58,7.65,103.55,40.13,31.97,32.48,45.39,61.62,48.51,106.59,3.12,44.97-24.91,175.24-35.52,194.92-10.61,19.68-57.25,65.78-71.21,72.93-13.96,7.16-45.33,14.98-45.33,14.98"/>
    </clipPath>
    <clipPath id="clippath-18">
      <path id="_輪郭_マスク-8" data-name="輪郭_マスク" class="cls-10" d="M299.75,49.96c29.62.83,71.58,7.65,103.55,40.13,31.97,32.48,45.39,61.62,48.51,106.59,3.12,44.97-24.91,175.24-35.52,194.92-10.61,19.68-57.25,65.78-71.21,72.93-13.96,7.16-45.33,14.98-45.33,14.98"/>
    </clipPath>
    <clipPath id="clippath-19">
      <path id="_輪郭-12" data-name="輪郭" class="cls-5" d="M299.72,43.95c29.62.84,71.58,7.76,103.55,40.7,31.97,32.93,45.39,62.48,48.51,108.08,3.12,45.6-24.91,177.69-35.52,197.65-10.61,19.95-57.25,66.7-71.21,73.95-13.96,7.26-45.33,15.19-45.33,15.19"/>
    </clipPath>
    <radialGradient id="_名称未設定グラデーション_671-2" data-name="名称未設定グラデーション 671" gradientTransform="translate(396.66 -474.74) scale(2.04 2.34)" xlink:href="#_名称未設定グラデーション_671"/>
    <clipPath id="clippath-20">
      <path id="_目_輪郭_マスク-2" data-name="目_輪郭_マスク" class="cls-5" d="M330.18,258.83s7.18-12.84,14.34-14.49,28.29-.01,33.17.88,21.48,8.28,21.48,8.28c0,0-11.66,10.55-17.26,11.91-2.23.54-8.22,1.42-14.62,1.36-9.7-.1-17.47-.68-20.36-1.36-2.89-.68-16.75-6.59-16.75-6.59Z"/>
    </clipPath>
    <radialGradient id="_名称未設定グラデーション_548-2" data-name="名称未設定グラデーション 548" cx="363.02" fx="363.02" gradientTransform="translate(-.29)" xlink:href="#_名称未設定グラデーション_548"/>
    <clipPath id="clippath-21">
      <path id="_輪郭_マスク-9" data-name="輪郭_マスク" class="cls-5" d="M327.72,260.6s.42-18.57,5.39-23.98c4.96-5.41,12.9-14.73,32.42-14.74,19.04-.01,25.21,6.76,31.63,15.66,7.06,9.78,6.14,17.17,6.14,17.17,0,0-6.57-3.69-16.77-6.18-9.95-2.43-23.46-3.66-30.3-3.29-5.45.3-12.4,1.57-17.16,4.42-7.34,4.4-11.35,10.95-11.35,10.95Z"/>
    </clipPath>
    <clipPath id="clippath-22">
      <path id="_輪郭_マスク-10" data-name="輪郭_マスク" class="cls-5" d="M299.75,49.96c29.62.83,71.58,7.65,103.55,40.13,31.97,32.48,45.39,61.62,48.51,106.59,3.12,44.97-24.91,175.24-35.52,194.92-10.61,19.68-57.25,65.78-71.21,72.93-13.96,7.16-45.33,14.98-45.33,14.98"/>
    </clipPath>
  </defs>
  <g class="cls-54">
    <g id="_レイヤー_2" data-name="レイヤー 2">
      <g id="_正面" data-name="正面">
        <g id="_パターン1" data-name="パターン1">
          <g class="cls-41">
            <g id="_体_ライブ反射のコピー_2" data-name="体_ライブ反射のコピー 2">
              <g>
                <g>
                  <path id="_本体" data-name="本体" class="cls-10" d="M299.75,495.3s-33.03-3.57-84.29,8.19c-34.65,7.95-106.39,35.72-127.07,40.82-51.27,12.64-60.88,56.34-68.62,74.25-7.74,17.91-30.96,199.14-30.96,199.14l7.54,43.2,303.39,5.82"/>
                  <g id="_影" data-name="影">
                    <path class="cls-23" d="M299.75,495.3s-33.03-3.57-84.29,8.19c-34.65,7.95-106.39,35.72-127.07,40.82-51.27,12.64-60.88,56.34-68.62,74.25-7.74,17.91-30.96,199.14-30.96,199.14l7.54,43.2,303.39,5.82"/>
                  </g>
                </g>
                <g>
                  <g id="_輪郭" data-name="輪郭">
                    <path id="_本体-2" data-name="本体" class="cls-10" d="M299.75,379.27l-93.72,22.72s6.74,50.49,6.29,67.55c-.51,19.37-13.5,97.11-6.02,111.11,7.49,14.01,93.45,34.2,93.45,34.2"/>
                    <g id="_影-2" data-name="影">
                      <path class="cls-26" d="M299.75,379.27l-93.72,22.72s6.74,50.49,6.29,67.55c-.51,19.37-13.5,97.11-6.02,111.11,7.49,14.01,93.45,34.2,93.45,34.2"/>
                    </g>
                  </g>
                  <g id="_鎖骨" data-name="鎖骨">
                    <path class="cls-27" d="M274.05,611.07c1.49.42-10.77-8.46-15.12-10.71-5.17-2.67-25.95-12.16-43.34-17.89-17.78-5.86-56.35-17.15-56.35-17.15,0,0,50.52,18.5,63.89,23.75,13.37,5.26,50.23,21.8,50.91,22Z"/>
                  </g>
                  <g id="_首筋" data-name="首筋">
                    <path class="cls-26" d="M240.31,440.65s13.19,63.92,15.82,70.66c2.62,6.75,17.66,55.37,17.66,55.37,0,0-19.11-39.97-23.98-51.59-4.87-11.62-9.5-74.45-9.5-74.45Z"/>
                  </g>
                </g>
              </g>
              <g>
                <g>
                  <path id="_本体-3" data-name="本体" class="cls-10" d="M299.75,495.3s33.03-3.57,84.29,8.19c34.65,7.95,106.39,35.72,127.07,40.82,51.27,12.64,60.88,56.34,68.62,74.25,7.74,17.91,30.96,199.14,30.96,199.14l-7.54,43.2-303.39,5.82"/>
                  <g id="_影-3" data-name="影">
                    <path class="cls-23" d="M299.75,495.3s33.03-3.57,84.29,8.19c34.65,7.95,106.39,35.72,127.07,40.82,51.27,12.64,60.88,56.34,68.62,74.25,7.74,17.91,30.96,199.14,30.96,199.14l-7.54,43.2-303.39,5.82"/>
                  </g>
                </g>
                <g>
                  <g id="_輪郭-2" data-name="輪郭">
                    <path id="_本体-4" data-name="本体" class="cls-10" d="M299.75,379.27l93.72,22.72s-6.74,50.49-6.29,67.55c.51,19.37,13.5,97.11,6.02,111.11-7.49,14.01-93.45,34.2-93.45,34.2"/>
                    <g id="_影-4" data-name="影">
                      <path class="cls-26" d="M299.75,379.27l93.72,22.72s-6.74,50.49-6.29,67.55c.51,19.37,13.5,97.11,6.02,111.11-7.49,14.01-93.45,34.2-93.45,34.2"/>
                    </g>
                  </g>
                  <g id="_鎖骨-2" data-name="鎖骨">
                    <path class="cls-27" d="M325.45,611.07c-1.49.42,10.77-8.46,15.12-10.71,5.17-2.67,25.95-12.16,43.34-17.89,17.78-5.86,56.35-17.15,56.35-17.15,0,0-50.52,18.5-63.89,23.75-13.37,5.26-50.23,21.8-50.91,22Z"/>
                  </g>
                  <g id="_首筋-2" data-name="首筋">
                    <path class="cls-26" d="M359.19,440.65s-13.19,63.92-15.82,70.66c-2.62,6.75-17.66,55.37-17.66,55.37,0,0,19.11-39.97,23.98-51.59,4.87-11.62,9.5-74.45,9.5-74.45Z"/>
                  </g>
                </g>
              </g>
            </g>
            <g id="_体" data-name="体">
              <g class="cls-44">
                <polygon id="_パス_" data-name="&amp;lt;パス&amp;gt;" class="cls-23" points="373.91 432.1 438.24 386.04 455.9 586.76 306.17 633.52 362.92 526.81 373.91 432.1"/>
              </g>
            </g>
            <g id="_服_ライブ反射のコピー" data-name="服_ライブ反射のコピー">
              <g>
                <g>
                  <path class="cls-28" d="M299.65,622.5s-29.81-.96-50.31-8.68c-22.65-8.52-50.38-28.01-63.07-40.67s-26.77-52.49-27.12-52.49c-2.09,0-68.69,21.09-76.33,23.33s-37.66,17.14-41.23,21.33c-7.64,8.95-23.9,48.59-26.88,57.88-4.1,12.79-31.94,193.3-31.94,193.3l13.5,44.4,303.39,5.82"/>
                  <path class="cls-7" d="M299.65,866.91l-303.54-5.82-.04-.14-13.51-44.44v-.04c.29-1.81,27.89-180.68,31.96-193.34,2.84-8.84,19.25-48.96,26.92-57.95,3.7-4.34,33.86-19.2,41.33-21.39,2.46-.72,10.88-3.35,21.55-6.68,22.53-7.03,53.38-16.66,54.83-16.66q.2,0,1.57,3.47c3.78,9.57,15.27,38.69,25.69,49.08,13.1,13.06,40.91,32.31,63,40.62,20.24,7.62,49.95,8.66,50.25,8.67v.4c-.31,0-30.09-1.05-50.39-8.69-22.14-8.33-50.01-27.62-63.14-40.71-10.49-10.46-22-39.63-25.78-49.22-.62-1.58-1.13-2.87-1.3-3.21-2.42.34-33.75,10.12-54.61,16.63-10.67,3.33-19.1,5.96-21.56,6.68-7.44,2.18-37.46,16.96-41.14,21.27-7.64,8.95-24.01,48.98-26.84,57.81-4.03,12.56-31.36,189.53-31.93,193.23l13.44,44.21,303.25,5.81v.4Z"/>
                </g>
                <path class="cls-7" d="M299.66,629.14c-.41-.04-41.03-4.21-54.43-9.58-13.56-5.42-44.87-23.43-58.69-36.25-13.95-12.94-19.77-26.25-22.9-33.4l-11.9-27.2.37-.16,11.9,27.2c3.12,7.12,8.92,20.39,22.81,33.27,13.79,12.79,45.03,30.76,58.57,36.17,13.35,5.34,53.92,9.51,54.33,9.55l-.04.4Z"/>
              </g>
              <g>
                <g>
                  <path class="cls-28" d="M299.75,622.5s29.81-.96,50.31-8.68c22.65-8.52,50.38-28.01,63.07-40.67s26.77-52.49,27.12-52.49c2.09,0,68.69,21.09,76.33,23.33s37.66,17.14,41.23,21.33c7.64,8.95,23.9,48.59,26.88,57.88,4.1,12.79,31.94,193.3,31.94,193.3l-13.5,44.4-303.39,5.82"/>
                  <path class="cls-7" d="M299.76,866.91v-.4s303.24-5.81,303.24-5.81l13.44-44.21c-.57-3.7-27.9-180.67-31.93-193.23-2.83-8.83-19.21-48.86-26.84-57.81-1.55-1.82-8.84-6.17-19.03-11.35-9.41-4.78-18.5-8.86-22.11-9.92-2.46-.72-10.88-3.35-21.55-6.68-20.86-6.51-52.2-16.29-54.62-16.63-.17.34-.67,1.62-1.3,3.2-3.78,9.59-15.3,38.77-25.78,49.22-13.13,13.09-41,32.38-63.14,40.71-20.3,7.64-50.08,8.68-50.38,8.69v-.4c.28,0,30-1.05,50.24-8.67,22.09-8.31,49.9-27.56,63-40.62,10.43-10.4,21.92-39.52,25.7-49.09q1.37-3.47,1.57-3.47c1.45,0,32.31,9.63,54.85,16.66,10.66,3.33,19.09,5.96,21.54,6.67,7.47,2.19,37.62,17.05,41.33,21.39,7.67,8.98,24.08,49.1,26.92,57.95,4.06,12.66,31.67,191.53,31.95,193.34v.04s0,.04,0,.04l-13.54,44.53h-.15s-303.39,5.82-303.39,5.82Z"/>
                </g>
                <path class="cls-7" d="M299.74,629.14l-.04-.4c.41-.04,40.98-4.21,54.33-9.55,13.53-5.41,44.78-23.38,58.57-36.17,13.89-12.88,19.69-26.14,22.81-33.27l11.89-27.2.37.16-11.89,27.2c-3.13,7.15-8.95,20.46-22.9,33.4-13.82,12.82-45.13,30.82-58.69,36.25-13.4,5.36-54.03,9.53-54.43,9.58Z"/>
              </g>
            </g>
            <g>
              <path class="cls-29" d="M158.54,777.65c2.81.68,5.27,1.18,7.4,1.49,2.12.32,4.5.47,7.12.47,2.36,0,4.78-.1,7.26-.29-1.59,2.18-2.84,4.24-3.77,6.15-.92,1.92-1.64,3.94-2.16,6.08-7.68-1.21-14.72-3.88-21.11-8.01-2.66,2.04-5.9,3.74-9.72,5.1-3.82,1.36-7.58,2.33-11.28,2.91-1.03-3.59-3.23-7.67-6.59-12.23,2.22.15,4.3.22,6.26.22,3.4,0,6.37-.17,8.92-.51,2.55-.34,4.38-.8,5.49-1.38h-20v-9.25h20.95v-1.46h-17.4v-7.13h17.4v-1.46h-17.79v-5.53h-3.05v-15.22h20.17v-2.11h12.69v2.11h20.17v15.22h-2.99v5.53h-17.79v1.46h17.4v7.13h-17.4v1.46h20.95v9.25h-21.11ZM138.76,748.67v2.4h8.53v-1.24h11.41v1.24h8.53v-2.4h-28.48Z"/>
              <path class="cls-29" d="M234.62,737.82v31.6c0,5.63-.39,9.76-1.16,12.38s-2.31,4.65-4.6,6.08c-2.29,1.43-6.11,2.9-11.47,4.4-.55-3.35-1.51-6.6-2.88-9.76-2.22,2.72-4.84,5.56-7.87,8.52-1-2.09-2.94-4.88-5.82-8.37-.22,2.33-.82,4.1-1.8,5.31-.98,1.21-2.53,2.09-4.65,2.62-2.12.54-5.18.9-9.17,1.09-.26-4.76-1.22-9.51-2.88-14.27,2.92,0,4.89-.04,5.93-.11,1.03-.07,1.66-.24,1.88-.51.22-.27.33-.81.33-1.64v-.22c-1.81.19-4.53.44-8.15.73-.22-5.68-.57-10.27-1.05-13.76,1.85,0,3.21-.02,4.1-.07-.74-1.12-1.7-2.3-2.88-3.57l-1.22-1.38c1.37-5.82,2.05-11.53,2.05-17.11h5.93l.06,2.84h1.16v-6.41h10.47v6.41h2.44c1-2.09,1.61-4.51,1.83-7.28l11.14.29c-.07.29-.15.62-.22.98s-.17.76-.28,1.2h18.78ZM190.46,761.7v-6.92h-1.77c-.22,2.23-.59,4.56-1.11,6.99l2.88-.07ZM203.43,754.79h-2.49v5.9c.55-.05,1.39-.17,2.49-.36v1.97c1.37-.97,2.81-2.4,4.32-4.3,1.51-1.89,2.9-3.98,4.16-6.26h-1.66c-1.11,1.94-2.53,4.05-4.27,6.33-.7-2.52-1.55-4.95-2.55-7.28v4ZM213.87,768.29c3.34-4.59,6.38-10.11,9.12-16.56h-1.66c-2.07,4.71-4.31,8.97-6.73,12.78-2.42,3.81-5.29,7.25-8.62,10.3-.52-2.91-1.37-6.29-2.55-10.12v8.45l-2.49.44v6.7c5.28-3.4,9.59-7.39,12.94-11.98ZM222.04,775.83c.74-.49,1.22-1.06,1.44-1.71s.33-1.54.33-2.66v-2.55c-1.66,2.86-3.38,5.56-5.15,8.08,1.51-.29,2.64-.68,3.38-1.17Z"/>
              <path class="cls-29" d="M252.02,772.55c1.7-.68,3.34-1.43,4.93-2.26,1.59-.83,3.68-1.97,6.26-3.42l1.11,15.95c-5.69,4.03-13.48,7.16-23.38,9.39-1-3.59-1.86-6.52-2.58-8.77-.72-2.26-1.65-4.55-2.8-6.88l4.1-.66v-39.75h12.36v8.88l11.64-.87v15.22l-11.64.87v12.3ZM279.34,760.54c2.81,1.31,6.1,2.28,9.86,2.91,0,8.35-.05,13.92-.14,16.71-.09,2.79-.36,4.94-.8,6.44-.44,1.41-1.02,2.46-1.75,3.17-.72.7-1.43,1.14-2.13,1.31-.7.17-1.66.3-2.88.4-1.33.15-2.81.22-4.43.22s-3.69-.07-6.32-.22c-1.48-.05-2.6-.35-3.38-.91-.78-.56-1.31-1.41-1.61-2.55-.3-1.14-.44-2.71-.44-4.7v-47.47h12.13v8.59c4.32-.83,8.18-1.72,11.58-2.69l.55,15.22-12.13,2.26v14.27c0,.53.1.9.3,1.09.2.19.51.29.91.29.3,0,.54-.15.75-.44s.3-.61.3-.95c0-4.22-.13-8.54-.39-12.96Z"/>
              <path class="cls-29" d="M329.87,778.01c3.33-.1,5.78-.19,7.37-.29v13.76h-29.31v-13.76c3.99.19,7,.29,9.03.29v-25.12c-1.33,3.83-4.04,6.31-8.15,7.43-.11-5.73-.52-10.95-1.22-15.65,2.96-.53,5.01-1.2,6.18-2,1.16-.8,2.07-1.69,2.72-2.66.65-.97,1.08-1.63,1.3-1.97v-.15h12.08v40.12Z"/>
              <path class="cls-29" d="M376.17,756.57c2.86,1.53,5,3.59,6.43,6.19,1.42,2.6,2.13,5.5,2.13,8.7,0,7.28-1.93,12.56-5.79,15.84-3.86,3.28-9.02,4.92-15.49,4.92-5.43,0-10.21-1.2-14.32-3.6s-7.1-6.44-8.95-12.12c2.03-.39,4.26-1.02,6.68-1.89,2.42-.87,4.61-1.77,6.57-2.69.78,2.09,1.86,3.6,3.27,4.55,1.4.95,3.29,1.42,5.65,1.42,2.51,0,4.59-.53,6.23-1.6,1.64-1.07,2.47-2.55,2.47-4.44s-.72-3.57-2.16-4.88c-1.44-1.31-3.64-1.97-6.59-1.97-1.92,0-3.68.45-5.26,1.35-1.59.9-2.73,2.17-3.44,3.82h-12.8c.89-5,1.67-10.39,2.35-16.16.68-5.78,1.1-10.9,1.25-15.36h38.9v14.12c-4.1-.34-7.97-.55-11.61-.62-3.64-.07-8.73-.11-15.27-.11l-.55,4.08c2.81-1.21,6.04-1.82,9.7-1.82,4.21,0,7.75.76,10.61,2.29Z"/>
              <path class="cls-29" d="M425.15,756.57c2.86,1.53,5,3.59,6.43,6.19,1.42,2.6,2.13,5.5,2.13,8.7,0,7.28-1.93,12.56-5.79,15.84s-9.02,4.92-15.49,4.92c-5.43,0-10.21-1.2-14.32-3.6-4.12-2.4-7.1-6.44-8.95-12.12,2.03-.39,4.26-1.02,6.68-1.89,2.42-.87,4.61-1.77,6.57-2.69.78,2.09,1.87,3.6,3.27,4.55,1.4.95,3.29,1.42,5.65,1.42,2.51,0,4.59-.53,6.23-1.6,1.64-1.07,2.47-2.55,2.47-4.44s-.72-3.57-2.16-4.88-3.64-1.97-6.59-1.97c-1.92,0-3.68.45-5.26,1.35-1.59.9-2.73,2.17-3.43,3.82h-12.8c.89-5,1.67-10.39,2.35-16.16.68-5.78,1.1-10.9,1.25-15.36h38.9v14.12c-4.1-.34-7.97-.55-11.61-.62-3.64-.07-8.73-.11-15.27-.11l-.55,4.08c2.81-1.21,6.04-1.82,9.7-1.82,4.21,0,7.75.76,10.61,2.29Z"/>
              <path class="cls-29" d="M479.31,767.13c1.74,1.14,3.06,2.71,3.96,4.7.9,1.99,1.36,4.2,1.36,6.63s-.45,4.71-1.36,6.7c-.91,1.99-2.23,3.56-3.96,4.7-1.74,1.14-3.82,1.71-6.26,1.71s-4.59-.57-6.34-1.71c-1.76-1.14-3.08-2.71-3.99-4.7s-1.36-4.22-1.36-6.7c0-1.46.17-2.84.5-4.15l-9.81,17.26h-12.8l17.23-30.29c-2.07,2.33-4.84,3.49-8.31,3.49-2.48,0-4.59-.57-6.34-1.71-1.75-1.14-3.08-2.71-3.99-4.7-.91-1.99-1.36-4.22-1.36-6.7s.45-4.63,1.36-6.63c.9-1.99,2.23-3.55,3.99-4.7,1.75-1.14,3.87-1.71,6.34-1.71s4.52.57,6.26,1.71c1.74,1.14,3.06,2.71,3.96,4.7.91,1.99,1.36,4.2,1.36,6.63,0,1.94-.28,3.71-.83,5.31l10.14-17.76h12.74l-16.46,28.98c2-1.84,4.56-2.77,7.7-2.77,2.44,0,4.52.57,6.26,1.71ZM450.3,754.35c.65-.82.97-1.75.97-2.77s-.32-1.89-.97-2.62-1.36-1.09-2.13-1.09c-.85,0-1.6.36-2.24,1.09-.65.73-.97,1.6-.97,2.62s.32,2,.97,2.8c.65.8,1.39,1.2,2.24,1.2.78,0,1.49-.41,2.13-1.24ZM475.18,781.14c.65-.82.97-1.75.97-2.77s-.32-1.89-.97-2.62c-.65-.73-1.36-1.09-2.13-1.09-.85,0-1.6.36-2.24,1.09-.65.73-.97,1.6-.97,2.62s.32,2,.97,2.8c.65.8,1.39,1.2,2.24,1.2.78,0,1.49-.41,2.13-1.24Z"/>
            </g>
            <g id="_顔_ライブ反射のコピー_2" data-name="顔_ライブ反射のコピー 2">
              <g>
                <g id="_耳のコピー_2" data-name="耳のコピー 2">
                  <g>
                    <g id="_輪郭-4" data-name="輪郭">
                      <path class="cls-10" d="M170.65,234.81s-6.51-10.2-17.04-6.12c-10.53,4.08-18.98,17.99-19.29,37.81-.31,19.82,4.72,30.3,4.72,30.3l9.55,33.29s-.84,12.45,3.01,17.7c4.58,6.24,6.38,5.2,14.68,8.84,8.3,3.64,15.21-9.25,15.21-9.25l-10.84-112.57Z"/>
                      <g>
                        <path class="cls-10" d="M170.65,234.81s-6.51-10.2-17.04-6.12c-10.53,4.08-18.98,17.99-19.29,37.81-.31,19.82,4.72,30.3,4.72,30.3l9.55,33.29s-.84,12.45,3.01,17.7c4.58,6.24,6.38,5.2,14.68,8.84,8.3,3.64,15.21-9.25,15.21-9.25l-10.84-112.57Z"/>
                        <path class="cls-10" d="M170.65,234.81s-6.51-10.2-17.04-6.12c-10.53,4.08-18.98,17.99-19.29,37.81-.31,19.82,4.72,30.3,4.72,30.3l9.55,33.29s-.84,12.45,3.01,17.7c4.58,6.24,6.38,5.2,14.68,8.84,8.3,3.64,15.21-9.25,15.21-9.25l-10.84-112.57Z"/>
                      </g>
                    </g>
                    <g>
                      <path class="cls-10" d="M162.8,255.54l-10.2,3.47s-2.11-.27-5.21,7.24c-3.1,7.51,2.26,23.44,2.26,23.44l6.44,15.73,10.99,3.68-4.28-53.56Z"/>
                      <path class="cls-10" d="M162.8,255.54l-10.2,3.47s-2.11-.27-5.21,7.24c-3.1,7.51,2.26,23.44,2.26,23.44l6.44,15.73,10.99,3.68-4.28-53.56Z"/>
                    </g>
                    <path class="cls-10" d="M165.46,292.5s-8.47,6.7-10.26,12.44c-1.78,5.74-4.3,11.1-3.52,15.13.78,4.02.97,4.02,5.57,7.85s13.98,6.59,13.98,6.59l-5.76-42.01Z"/>
                    <g>
                      <path class="cls-10" d="M156.75,237.98s-1.19-3.66-5.21-2.11c-4.03,1.55-9.74,10.17-10.9,14.63-1.15,4.44-1.69,7-2.11,17.4-.33,8.24,3.11,21.57,3.11,21.57"/>
                      <path class="cls-10" d="M157.22,237.83c-.42-1.54-1.67-2.87-3.31-3.12-6.17-.76-12.41,9.5-14.25,14.58-2,6.6-1.96,13.53-1.84,20.35.38,6.75,1.94,13.4,3.81,19.84-1.26-6.58-2.4-13.19-2.44-19.86.31-5.27.8-10.61,1.89-15.76.75-3.82,2.36-7.27,4.59-10.54,1.45-2.13,3.06-4.25,4.97-5.79.89-.7,1.98-1.23,3.08-1.21,1.1.01,2.06.85,2.54,1.81,0,0,.95-.31.95-.31h0Z"/>
                    </g>
                  </g>
                  <g>
                    <g id="_輪郭-5" data-name="輪郭">
                      <path class="cls-10" d="M170.65,234.81s-6.51-10.2-17.04-6.12c-10.53,4.08-18.98,17.99-19.29,37.81-.31,19.82,4.72,30.3,4.72,30.3l9.55,33.29s-.84,12.45,3.01,17.7c4.58,6.24,6.38,5.2,14.68,8.84,8.3,3.64,15.21-9.25,15.21-9.25l-10.84-112.57Z"/>
                      <path class="cls-6" d="M170.65,234.81s-6.51-10.2-17.04-6.12c-10.53,4.08-18.98,17.99-19.29,37.81-.31,19.82,4.72,30.3,4.72,30.3l9.55,33.29s-.84,12.45,3.01,17.7c4.58,6.24,6.38,5.2,14.68,8.84,8.3,3.64,15.21-9.25,15.21-9.25l-10.84-112.57Z"/>
                    </g>
                    <path class="cls-8" d="M162.8,255.54l-10.2,3.47s-2.11-.27-5.21,7.24c-3.1,7.51,2.26,23.44,2.26,23.44l6.44,15.73,10.99,3.68-4.28-53.56Z"/>
                    <path class="cls-18" d="M165.46,292.5s-8.47,6.7-10.26,12.44c-1.78,5.74-4.3,11.1-3.52,15.13.78,4.02.97,4.02,5.57,7.85s13.98,6.59,13.98,6.59l-5.76-42.01Z"/>
                    <path class="cls-37" d="M157.22,237.83c-.42-1.54-1.67-2.87-3.31-3.12-6.17-.76-12.41,9.5-14.25,14.58-2,6.6-1.96,13.53-1.84,20.35.38,6.75,1.94,13.4,3.81,19.84-1.26-6.58-2.4-13.19-2.44-19.86.31-5.27.8-10.61,1.89-15.76.75-3.82,2.36-7.27,4.59-10.54,1.45-2.13,3.06-4.25,4.97-5.79.89-.7,1.98-1.23,3.08-1.21,1.1.01,2.06.85,2.54,1.81,0,0,.95-.31.95-.31h0Z"/>
                  </g>
                </g>
                <path id="_輪郭-6" data-name="輪郭" class="cls-10" d="M299.72,43.95c-29.62.84-71.58,7.76-103.55,40.7-31.97,32.93-45.39,62.48-48.51,108.08-3.12,45.6,24.91,177.69,35.52,197.65,10.61,19.95,57.25,66.7,71.21,73.95,13.96,7.26,45.33,15.19,45.33,15.19"/>
                <g id="_陰影-2" data-name="陰影">
                  <path id="_輪郭_マスク-2" data-name="輪郭_マスク" class="cls-43" d="M299.69,49.96c-29.62.83-71.58,7.65-103.55,40.13-31.97,32.48-45.39,61.62-48.51,106.59-3.12,44.97,24.91,175.24,35.52,194.92,10.61,19.68,57.25,65.78,71.21,72.93,13.96,7.16,45.33,14.98,45.33,14.98"/>
                  <g class="cls-47">
                    <g class="cls-45">
                      <g id="_口下" data-name="口下">
                        <path class="cls-12" d="M299.69,432.53s-19.27-4.8-25.16-9.23-16.82-15.13-14.17-15.99c2.93-.96,39.34-2.36,39.34-2.36"/>
                      </g>
                      <g id="_鼻下" data-name="鼻下">
                        <path class="cls-12" d="M299.69,361.98s-1.86.03-3.37-.1c-1.51-.13-12.66.12-16.68-.49s4.03,6.35,7.05,8.1c3.03,1.75,12.99,3.03,12.99,3.03"/>
                      </g>
                      <g id="_側面" data-name="側面">
                        <path class="cls-25" d="M210.62,431.83s-17.81-44.55-26.38-79.37c-8.39-34.08-25.22-173.25-25.22-173.25l-66.1,44.97,42.49,183.37,75.21,24.28Z"/>
                      </g>
                    </g>
                    <g id="_頬" data-name="頬">
                      <ellipse class="cls-24" cx="199.19" cy="322.08" rx="68.72" ry="84.54"/>
                    </g>
                  </g>
                </g>
                <g>
                  <path class="cls-26" d="M270.68,261.39c.44-3-7.15-14.48-7.15-14.48l-9.21,8.3-11.17,4.36-13.89.69-10.21-5.06-13.89-5.02-7.11-.75s1.66,11.98,8.61,20.55c6.95,8.57,14.63,10.42,25.29,10.42s22.65-2.32,28.37-6.25c5.72-3.94,9.92-9.78,10.37-12.78Z"/>
                  <path class="cls-23" d="M270.21,260.22c.44-1.97-6.28-9.75-6.28-9.75l-9.25,5.45-11.21,2.87-13.95.46-10.26-3.32-13.95-3.3-6.1-.08s-.04,10.19,7.06,15.6c6.28,4.77,6.9,5.15,17.85,5.15,5.12,0,12.46-.23,19.19-1.33,7.34-1.2,13.98-3.32,16.98-4.67,5.74-2.59,9.48-5.1,9.92-7.07Z"/>
                  <g id="_目_輪郭" data-name="目_輪郭">
                    <path class="cls-22" d="M269.26,258.83s-7.18-12.84-14.34-14.49-28.29-.01-33.17.88-21.48,8.28-21.48,8.28c0,0,11.66,10.55,17.26,11.91,2.23.54,8.22,1.42,14.62,1.36,9.7-.1,17.47-.68,20.36-1.36,2.89-.68,16.75-6.59,16.75-6.59Z"/>
                  </g>
                  <g id="_目_輪郭-2" data-name="目_輪郭">
                    <path class="cls-22" d="M269.26,258.83s-7.18-12.84-14.34-14.49-28.29-.01-33.17.88-21.48,8.28-21.48,8.28c0,0,11.66,10.55,17.26,11.91,2.23.54,8.22,1.42,14.62,1.36,9.7-.1,17.47-.68,20.36-1.36,2.89-.68,16.75-6.59,16.75-6.59Z"/>
                  </g>
                  <g id="_眼-2" data-name="眼">
                    <g class="cls-46">
                      <g>
                        <g>
                          <circle id="_眼-3" data-name="眼" class="cls-35" cx="236.71" cy="251.66" r="15.22"/>
                          <path id="_眼_背面" data-name="眼_背面" class="cls-35" d="M236.71,266.61c8.24,0,14.95-6.71,14.95-14.95s-6.71-14.95-14.95-14.95-14.95,6.71-14.95,14.95,6.71,14.95,14.95,14.95Z"/>
                        </g>
                        <g>
                          <circle id="_眼-4" data-name="眼" class="cls-3" cx="236.71" cy="251.66" r="15.22"/>
                          <path id="_眼_背面-2" data-name="眼_背面" class="cls-13" d="M236.71,266.61c8.24,0,14.95-6.71,14.95-14.95s-6.71-14.95-14.95-14.95-14.95,6.71-14.95,14.95,6.71,14.95,14.95,14.95Z"/>
                        </g>
                      </g>
                      <g id="_目_影" data-name="目_影">
                        <g id="_パス_-2" data-name="&amp;lt;パス&amp;gt;">
                          <path class="cls-20" d="M215.16,245.68s-12.21,6.92-12.24,7.76,6.53,6.41,9.11,8.16c1.75,1.19,3.36,2.17,6.18,3.31,2.78,1.13,8.24,1.61,9.38,1.86,3.47.76-4.19,4.24-4.19,4.24l-9.23-3.16-12.2-7.07-4.39-9.36,9.1-6.77,8.47,1.03Z"/>
                        </g>
                        <path class="cls-20" d="M262.04,247.44s3.81,7.5,3.31,9.99-11.43,7.65-14.54,9.11c-3.11,1.46,7.1,2.81,7.1,2.81l13.16-6.29.8-10.66-9.83-4.96Z"/>
                      </g>
                    </g>
                  </g>
                  <path id="_目尻" data-name="目尻" class="cls-32" d="M271.01,259.39l-3.8-3.88s.95,2.16.95,2.57-1.97,2.04-1.97,2.04l4.82-.73Z"/>
                </g>
                <g>
                  <g id="_睫毛" data-name="睫毛">
                    <path class="cls-33" d="M262.48,234.93l-10.42,9.35.98-1.82-5.06,3.13,1.61-2.6-4.26,2.44,1.45-2.73-3.83,2.53,1.5-3.1-4.2,3.24,1.07-3.39-5.09,4.25,2.03-4.43-5.65,5.23,1.36-5.38-5.46,6.45,2.44-5.56-7.04,6.56,2.26-5.73-4.71,5.39,1-4.47-3.58,4.49.63-3.39-3.21,4.44,1.75-4.75-4.17,5.62,1.22-4.41-3.53,5.11,1.29-4.9-3.49,5.83,1.31-4.81-2.66,5.17.42-4.19-2.59,5.68.5-4.49-2.01,5.15.28-4.61-2.06,5.66.41-4.84-1.85,4.82.22-4.05-1.77,4v-3.36s-1.61,3.77-1.61,3.77l.51-3.32-1.33,2.98.22-2.44-1.6,2.29,1.33-3.43s15.77-12.28,25.37-15.32c9.6-3.04,40.04-2.07,40.04-2.07Z"/>
                    <path class="cls-39" d="M271.4,256.12c.19.51.35,5.61.35,5.61l-.93-5.33-.21,4.89-1.76-7.81v5.71l-1.59-6.46v4.5l-1.16-5.12-.64,2.82-1.29-4.1-.21,2.38-1.24-3.49v2.21l-1.93-3-1.5-3.24s3.66,2.31,6.22,3.77c2.56,1.46,5.69,6.15,5.88,6.66Z"/>
                  </g>
                  <path id="_輪郭-8" data-name="輪郭" class="cls-4" d="M271.72,260.6s-.42-18.57-5.39-23.98c-4.96-5.41-12.9-14.73-32.42-14.74-19.04-.01-25.21,6.76-31.63,15.66-7.06,9.78-6.14,17.17-6.14,17.17,0,0,6.57-3.69,16.77-6.18,9.95-2.43,23.46-3.66,30.3-3.29,5.45.3,12.4,1.57,17.16,4.42,7.34,4.4,11.35,10.95,11.35,10.95Z"/>
                  <g id="_瞼_影-2" data-name="瞼_影">
                    <g class="cls-48">
                      <path class="cls-1" d="M274.28,271.09s-.87-7.39-2.02-9.64-3.37-8.36-10.91-12.28c-7.32-3.81-13.12-5.64-21.27-5.39-9.82.29-12.72.57-23.02,2.54-8.5,1.62-18.97,6.73-21.25,8.62-3.8,3.14-4.66,6.93-5.37,10.27-.71,3.34-.44,5.36-.44,5.36l84.28.53Z"/>
                      <path class="cls-12" d="M273.27,266.06s-.82-7.49-1.92-9.77-3.33-8.21-10.35-12.45c-7.03-4.24-10.99-5.29-20.18-5.47s-12.07-.53-21.8,1.66c-9.73,2.2-15.31,4.82-18.56,8.42-3.24,3.6-6.07,8.24-6.74,11.63s-.42,5.43-.42,5.43l79.96.54Z"/>
                    </g>
                  </g>
                </g>
                <g id="_眉" data-name="眉">
                  <path class="cls-16" d="M273.09,222.46c-.91-5.19-4.58-6.54-8.77-8.23-3.4-1.37-6.99-2.18-10.6-2.87-8.21-1.56-16.53-3.06-24.97-2.96-9.99.23-19.91,1.22-29.84,2.15-3.59.37-7.18.7-10.76,1.21,0,0,.03,1,.03,1,14.24.97,28.51,1.73,42.62,3.84,6.69,1.27,13.46,3.11,20.12,5.37,3.32,1.15,6.65,2.28,10.11,3.01,2.74.42,5.37,1.48,8.18.51,1.06-.39,2.19-.95,3.53-2.1,0,0,.33-.94.33-.94h0Z"/>
                </g>
              </g>
              <g>
                <g id="_耳のコピー_2-2" data-name="耳のコピー 2">
                  <g>
                    <g id="_輪郭-9" data-name="輪郭">
                      <path class="cls-10" d="M428.79,234.81s6.51-10.2,17.04-6.12c10.53,4.08,18.98,17.99,19.29,37.81.31,19.82-4.72,30.3-4.72,30.3l-9.55,33.29s.84,12.45-3.01,17.7c-4.58,6.24-6.38,5.2-14.68,8.84-8.3,3.64-15.21-9.25-15.21-9.25l10.84-112.57Z"/>
                      <g>
                        <path class="cls-10" d="M428.79,234.81s6.51-10.2,17.04-6.12c10.53,4.08,18.98,17.99,19.29,37.81.31,19.82-4.72,30.3-4.72,30.3l-9.55,33.29s.84,12.45-3.01,17.7c-4.58,6.24-6.38,5.2-14.68,8.84-8.3,3.64-15.21-9.25-15.21-9.25l10.84-112.57Z"/>
                        <path class="cls-10" d="M428.79,234.81s6.51-10.2,17.04-6.12c10.53,4.08,18.98,17.99,19.29,37.81.31,19.82-4.72,30.3-4.72,30.3l-9.55,33.29s.84,12.45-3.01,17.7c-4.58,6.24-6.38,5.2-14.68,8.84-8.3,3.64-15.21-9.25-15.21-9.25l10.84-112.57Z"/>
                      </g>
                    </g>
                    <g>
                      <path class="cls-10" d="M436.64,255.54l10.2,3.47s2.11-.27,5.21,7.24c3.1,7.51-2.26,23.44-2.26,23.44l-6.44,15.73-10.99,3.68,4.28-53.56Z"/>
                      <path class="cls-10" d="M436.64,255.54l10.2,3.47s2.11-.27,5.21,7.24c3.1,7.51-2.26,23.44-2.26,23.44l-6.44,15.73-10.99,3.68,4.28-53.56Z"/>
                    </g>
                    <path class="cls-10" d="M433.98,292.5s8.47,6.7,10.26,12.44c1.78,5.74,4.3,11.1,3.52,15.13-.78,4.02-.97,4.02-5.57,7.85s-13.98,6.59-13.98,6.59l5.76-42.01Z"/>
                    <g>
                      <path class="cls-10" d="M442.69,237.98s1.19-3.66,5.21-2.11c4.03,1.55,9.74,10.17,10.9,14.63,1.15,4.44,1.69,7,2.11,17.4.33,8.24-3.11,21.57-3.11,21.57"/>
                      <path class="cls-10" d="M442.22,237.83c.42-1.54,1.67-2.87,3.31-3.12,6.17-.76,12.41,9.5,14.25,14.58,2,6.6,1.96,13.53,1.84,20.35-.38,6.75-1.94,13.4-3.81,19.84,1.26-6.58,2.4-13.19,2.44-19.86-.31-5.27-.8-10.61-1.89-15.76-.75-3.82-2.36-7.27-4.59-10.54-1.45-2.13-3.06-4.25-4.97-5.79-.89-.7-1.98-1.23-3.08-1.21-1.1.01-2.06.85-2.54,1.81,0,0-.95-.31-.95-.31h0Z"/>
                    </g>
                  </g>
                  <g>
                    <g id="_輪郭-10" data-name="輪郭">
                      <path class="cls-10" d="M428.79,234.81s6.51-10.2,17.04-6.12c10.53,4.08,18.98,17.99,19.29,37.81.31,19.82-4.72,30.3-4.72,30.3l-9.55,33.29s.84,12.45-3.01,17.7c-4.58,6.24-6.38,5.2-14.68,8.84-8.3,3.64-15.21-9.25-15.21-9.25l10.84-112.57Z"/>
                      <path class="cls-6" d="M428.79,234.81s6.51-10.2,17.04-6.12c10.53,4.08,18.98,17.99,19.29,37.81.31,19.82-4.72,30.3-4.72,30.3l-9.55,33.29s.84,12.45-3.01,17.7c-4.58,6.24-6.38,5.2-14.68,8.84-8.3,3.64-15.21-9.25-15.21-9.25l10.84-112.57Z"/>
                    </g>
                    <path class="cls-8" d="M436.64,255.54l10.2,3.47s2.11-.27,5.21,7.24c3.1,7.51-2.26,23.44-2.26,23.44l-6.44,15.73-10.99,3.68,4.28-53.56Z"/>
                    <path class="cls-18" d="M433.98,292.5s8.47,6.7,10.26,12.44c1.78,5.74,4.3,11.1,3.52,15.13-.78,4.02-.97,4.02-5.57,7.85s-13.98,6.59-13.98,6.59l5.76-42.01Z"/>
                    <path class="cls-37" d="M442.22,237.83c.42-1.54,1.67-2.87,3.31-3.12,6.17-.76,12.41,9.5,14.25,14.58,2,6.6,1.96,13.53,1.84,20.35-.38,6.75-1.94,13.4-3.81,19.84,1.26-6.58,2.4-13.19,2.44-19.86-.31-5.27-.8-10.61-1.89-15.76-.75-3.82-2.36-7.27-4.59-10.54-1.45-2.13-3.06-4.25-4.97-5.79-.89-.7-1.98-1.23-3.08-1.21-1.1.01-2.06.85-2.54,1.81,0,0-.95-.31-.95-.31h0Z"/>
                  </g>
                </g>
                <path id="_輪郭-11" data-name="輪郭" class="cls-10" d="M299.72,43.95c29.62.84,71.58,7.76,103.55,40.7,31.97,32.93,45.39,62.48,48.51,108.08,3.12,45.6-24.91,177.69-35.52,197.65-10.61,19.95-57.25,66.7-71.21,73.95-13.96,7.26-45.33,15.19-45.33,15.19"/>
                <g id="_陰影-5" data-name="陰影">
                  <path id="_輪郭_マスク-7" data-name="輪郭_マスク" class="cls-43" d="M299.75,49.96c29.62.83,71.58,7.65,103.55,40.13,31.97,32.48,45.39,61.62,48.51,106.59,3.12,44.97-24.91,175.24-35.52,194.92-10.61,19.68-57.25,65.78-71.21,72.93-13.96,7.16-45.33,14.98-45.33,14.98"/>
                  <g class="cls-52">
                    <g class="cls-51">
                      <g id="_口下-2" data-name="口下">
                        <path class="cls-12" d="M299.75,432.53s19.27-4.8,25.16-9.23,16.82-15.13,14.17-15.99c-2.93-.96-39.34-2.36-39.34-2.36"/>
                      </g>
                      <g id="_鼻下-2" data-name="鼻下">
                        <path class="cls-12" d="M299.75,361.98s1.86.03,3.37-.1c1.51-.13,12.66.12,16.68-.49s-4.03,6.35-7.05,8.1c-3.03,1.75-12.99,3.03-12.99,3.03"/>
                      </g>
                      <g id="_側面-2" data-name="側面">
                        <path class="cls-25" d="M388.83,431.83s17.81-44.55,26.38-79.37c8.39-34.08,25.22-173.25,25.22-173.25l66.1,44.97-42.49,183.37-75.21,24.28Z"/>
                      </g>
                    </g>
                    <g id="_頬-2" data-name="頬">
                      <ellipse class="cls-36" cx="400.25" cy="322.08" rx="68.72" ry="84.54"/>
                    </g>
                  </g>
                </g>
                <g>
                  <path class="cls-26" d="M328.76,261.39c-.44-3,7.15-14.48,7.15-14.48l9.21,8.3,11.17,4.36,13.89.69,10.21-5.06,13.89-5.02,7.11-.75s-1.66,11.98-8.61,20.55c-6.95,8.57-14.63,10.42-25.29,10.42s-22.65-2.32-28.37-6.25c-5.72-3.94-9.92-9.78-10.37-12.78Z"/>
                  <path class="cls-23" d="M329.23,260.22c-.44-1.97,6.28-9.75,6.28-9.75l9.25,5.45,11.21,2.87,13.95.46,10.26-3.32,13.95-3.3,6.1-.08s.04,10.19-7.06,15.6c-6.28,4.77-6.9,5.15-17.85,5.15-5.12,0-12.46-.23-19.19-1.33-7.34-1.2-13.98-3.32-16.98-4.67-5.74-2.59-9.48-5.1-9.92-7.07Z"/>
                  <g id="_目_輪郭-3" data-name="目_輪郭">
                    <path class="cls-22" d="M330.18,258.83s7.18-12.84,14.34-14.49,28.29-.01,33.17.88,21.48,8.28,21.48,8.28c0,0-11.66,10.55-17.26,11.91-2.23.54-8.22,1.42-14.62,1.36-9.7-.1-17.47-.68-20.36-1.36-2.89-.68-16.75-6.59-16.75-6.59Z"/>
                  </g>
                  <g id="_目_輪郭-4" data-name="目_輪郭">
                    <path class="cls-22" d="M330.18,258.83s7.18-12.84,14.34-14.49,28.29-.01,33.17.88,21.48,8.28,21.48,8.28c0,0-11.66,10.55-17.26,11.91-2.23.54-8.22,1.42-14.62,1.36-9.7-.1-17.47-.68-20.36-1.36-2.89-.68-16.75-6.59-16.75-6.59Z"/>
                  </g>
                  <g id="_眼-7" data-name="眼">
                    <g class="cls-49">
                      <g>
                        <g>
                          <circle id="_眼-8" data-name="眼" class="cls-35" cx="362.73" cy="251.66" r="15.22"/>
                          <path id="_眼_背面-3" data-name="眼_背面" class="cls-35" d="M362.73,266.61c-8.24,0-14.95-6.71-14.95-14.95s6.71-14.95,14.95-14.95,14.95,6.71,14.95,14.95-6.71,14.95-14.95,14.95Z"/>
                        </g>
                        <g>
                          <circle id="_眼-9" data-name="眼" class="cls-3" cx="362.73" cy="251.66" r="15.22"/>
                          <path id="_眼_背面-4" data-name="眼_背面" class="cls-30" d="M362.73,266.61c-8.24,0-14.95-6.71-14.95-14.95s6.71-14.95,14.95-14.95,14.95,6.71,14.95,14.95-6.71,14.95-14.95,14.95Z"/>
                        </g>
                      </g>
                      <g id="_目_影-2" data-name="目_影">
                        <g id="_パス_-3" data-name="&amp;lt;パス&amp;gt;">
                          <path class="cls-20" d="M384.28,245.68s12.21,6.92,12.24,7.76-6.53,6.41-9.11,8.16c-1.75,1.19-3.36,2.17-6.18,3.31-2.78,1.13-8.24,1.61-9.38,1.86-3.47.76,4.19,4.24,4.19,4.24l9.23-3.16,12.2-7.07,4.39-9.36-9.1-6.77-8.47,1.03Z"/>
                        </g>
                        <path class="cls-20" d="M337.4,247.44s-3.81,7.5-3.31,9.99,11.43,7.65,14.54,9.11c3.11,1.46-7.1,2.81-7.1,2.81l-13.16-6.29-.8-10.66,9.83-4.96Z"/>
                      </g>
                    </g>
                  </g>
                  <path id="_目尻-2" data-name="目尻" class="cls-32" d="M328.43,259.39l3.8-3.88s-.95,2.16-.95,2.57,1.97,2.04,1.97,2.04l-4.82-.73Z"/>
                </g>
                <g>
                  <g id="_睫毛-2" data-name="睫毛">
                    <path class="cls-33" d="M336.96,234.93l10.42,9.35-.98-1.82,5.06,3.13-1.61-2.6,4.26,2.44-1.45-2.73,3.83,2.53-1.5-3.1,4.2,3.24-1.07-3.39,5.09,4.25-2.03-4.43,5.65,5.23-1.36-5.38,5.46,6.45-2.44-5.56,7.04,6.56-2.26-5.73,4.71,5.39-1-4.47,3.58,4.49-.63-3.39,3.21,4.44-1.75-4.75,4.17,5.62-1.22-4.41,3.53,5.11-1.29-4.9,3.49,5.83-1.31-4.81,2.66,5.17-.42-4.19,2.59,5.68-.5-4.49,2.01,5.15-.28-4.61,2.06,5.66-.41-4.84,1.85,4.82-.22-4.05,1.77,4v-3.36s1.61,3.77,1.61,3.77l-.51-3.32,1.33,2.98-.22-2.44,1.6,2.29-1.33-3.43s-15.77-12.28-25.37-15.32c-9.6-3.04-40.04-2.07-40.04-2.07Z"/>
                    <path class="cls-39" d="M328.04,256.12c-.19.51-.35,5.61-.35,5.61l.93-5.33.21,4.89,1.76-7.81v5.71l1.59-6.46v4.5l1.16-5.12.64,2.82,1.29-4.1.21,2.38,1.24-3.49v2.21l1.93-3,1.5-3.24s-3.66,2.31-6.22,3.77c-2.56,1.46-5.69,6.15-5.88,6.66Z"/>
                  </g>
                  <path id="_輪郭-13" data-name="輪郭" class="cls-4" d="M327.72,260.6s.42-18.57,5.39-23.98c4.96-5.41,12.9-14.73,32.42-14.74,19.04-.01,25.21,6.76,31.63,15.66,7.06,9.78,6.14,17.17,6.14,17.17,0,0-6.57-3.69-16.77-6.18-9.95-2.43-23.46-3.66-30.3-3.29-5.45.3-12.4,1.57-17.16,4.42-7.34,4.4-11.35,10.95-11.35,10.95Z"/>
                  <g id="_瞼_影-5" data-name="瞼_影">
                    <g class="cls-50">
                      <path class="cls-1" d="M325.16,271.09s.87-7.39,2.02-9.64,3.37-8.36,10.91-12.28c7.32-3.81,13.12-5.64,21.27-5.39,9.82.29,12.72.57,23.02,2.54,8.5,1.62,18.97,6.73,21.25,8.62,3.8,3.14,4.66,6.93,5.37,10.27.71,3.34.44,5.36.44,5.36l-84.28.53Z"/>
                      <path class="cls-12" d="M326.17,266.06s.82-7.49,1.92-9.77,3.33-8.21,10.35-12.45c7.03-4.24,10.99-5.29,20.18-5.47s12.07-.53,21.8,1.66c9.73,2.2,15.31,4.82,18.56,8.42,3.24,3.6,6.07,8.24,6.74,11.63s.42,5.43.42,5.43l-79.96.54Z"/>
                    </g>
                  </g>
                </g>
                <g id="_眉-2" data-name="眉">
                  <path class="cls-16" d="M326.36,222.46c.91-5.19,4.58-6.54,8.77-8.23,3.4-1.37,6.99-2.18,10.6-2.87,8.21-1.56,16.53-3.06,24.97-2.96,9.99.23,19.91,1.22,29.84,2.15,3.59.37,7.18.7,10.76,1.21,0,0-.03,1-.03,1-14.24.97-28.51,1.73-42.62,3.84-6.69,1.27-13.46,3.11-20.12,5.37-3.32,1.15-6.65,2.28-10.11,3.01-2.74.42-5.37,1.48-8.18.51-1.06-.39-2.19-.95-3.53-2.1,0,0-.33-.94-.33-.94h0Z"/>
                </g>
              </g>
            </g>
            <g id="_口のコピー_2" data-name="口のコピー 2">
              <g id="_パターン1-2" data-name="パターン1">
                <g>
                  <path class="cls-34" d="M299.72,402.8c-1.96,0-15.4,1.39-27.48,4.06-11.08,2.46-16.11-.23-16.11-.23,0,0,4.24,4.73,13.68,8.82,11.36,4.92,25.92,5.46,29.91,5.46"/>
                  <path class="cls-21" d="M299.72,420.95c-1.77,0-17.69-.15-29.93-5.46-9.34-4.05-13.66-8.79-13.7-8.83l-.19-.21.25.13s1.28.67,3.89,1.03c2.4.33,6.47.46,12.19-.8,11.64-2.58,25.29-4.07,27.49-4.07v.1c-2.2,0-15.83,1.49-27.47,4.06-3.16.7-7.85,1.41-12.23.8-1.98-.27-3.19-.72-3.67-.93.9.92,5.22,5.04,13.48,8.62,12.22,5.3,28.12,5.45,29.89,5.45v.1Z"/>
                </g>
                <g>
                  <path class="cls-34" d="M299.72,406.57s-10.2-.83-14.69-.28c-4.49.55-9.44,1.34-16.04,2.24-7.12-.15-13.18-1.53-13.18-1.99s-.15-.48,7.5-3.18c7.64-2.7,21.12-5.85,24.51-5.73,3.03.11,11.9.89,11.9.89"/>
                  <path class="cls-21" d="M268.99,408.58c-6.98-.15-13.24-1.48-13.24-2.04v-.03c0-.49,0-.54,7.53-3.2,7.48-2.64,20.63-5.73,24.33-5.73.07,0,.14,0,.21,0,3,.11,11.82.88,11.91.89v.1c-.1,0-8.91-.77-11.91-.89-.07,0-.13,0-.21,0-3.68,0-16.82,3.09-24.29,5.73-7.46,2.64-7.46,2.71-7.46,3.11v.03c0,.16,1.23.6,3.88,1.07,1.65.29,5.05.79,9.25.88,2.8-.38,5.36-.75,7.62-1.08,3.13-.45,5.84-.84,8.42-1.16,4.44-.54,14.6.27,14.7.28v.1c-.11,0-10.25-.82-14.69-.28-2.58.31-5.28.71-8.42,1.16-2.26.33-4.82.7-7.63,1.08Z"/>
                </g>
                <path class="cls-17" d="M299.72,422.34l-3.01-.1s-7.01-.09-10.78-1.05-9.14-3.31-9.14-3.31c-.03-.04,10.94,1.43,11.83,1.51s3.51.37,4.93.43,6.18.1,6.18.1"/>
                <path class="cls-2" d="M299.73,398.57c-3.23-.24-6.85-.12-10.12-.18-3.99.06-4.12.04-.12.98,3.34.79,6.78,1.13,10.2,1.34,0,0,.03-2.13.03-2.13h0Z"/>
              </g>
              <g id="_パターン1-3" data-name="パターン1">
                <g>
                  <path class="cls-34" d="M299.75,402.8c1.96,0,15.4,1.39,27.48,4.06,11.08,2.46,16.11-.23,16.11-.23,0,0-4.24,4.73-13.68,8.82-11.36,4.92-25.92,5.46-29.91,5.46"/>
                  <path class="cls-21" d="M299.75,420.95v-.1c1.77,0,17.67-.15,29.89-5.45,8.26-3.58,12.58-7.7,13.48-8.62-.48.21-1.7.66-3.67.93-2.42.33-6.5.47-12.23-.8-11.64-2.58-25.27-4.06-27.47-4.06v-.1c2.2,0,15.85,1.49,27.49,4.07,3.15.7,7.83,1.41,12.19.8,2.61-.36,3.88-1.03,3.89-1.03l.25-.13-.19.21s-4.36,4.78-13.7,8.83c-12.24,5.31-28.16,5.46-29.93,5.46Z"/>
                </g>
                <g>
                  <path class="cls-34" d="M299.75,406.57s10.2-.83,14.69-.28c4.49.55,9.44,1.34,16.04,2.24,7.12-.15,13.18-1.53,13.18-1.99s.15-.48-7.5-3.18c-7.64-2.7-21.12-5.85-24.51-5.73-3.03.11-11.9.89-11.9.89"/>
                  <path class="cls-21" d="M330.48,408.58c-2.82-.38-5.38-.75-7.63-1.08-3.13-.45-5.84-.84-8.42-1.16-4.44-.54-14.58.27-14.68.28v-.1c.09,0,10.25-.82,14.69-.28,2.58.32,5.29.71,8.42,1.16,2.26.33,4.82.7,7.63,1.08,4.19-.09,7.59-.59,9.25-.88,2.64-.46,3.88-.91,3.88-1.07v-.03c0-.4,0-.47-7.46-3.11-7.47-2.64-20.6-5.73-24.29-5.73-.07,0-.14,0-.21,0-3,.11-11.81.88-11.9.89v-.1c.08,0,8.9-.78,11.9-.89.07,0,.13,0,.21,0,3.69,0,16.85,3.09,24.33,5.73,7.53,2.66,7.53,2.71,7.53,3.2v.03c0,.57-6.26,1.9-13.23,2.04Z"/>
                </g>
                <path class="cls-17" d="M299.75,422.34l3.01-.1s7.01-.09,10.78-1.05,9.14-3.31,9.14-3.31c.03-.04-10.94,1.43-11.83,1.51s-3.51.37-4.93.43-6.18.1-6.18.1"/>
                <path class="cls-2" d="M299.74,398.57c3.23-.24,6.85-.12,10.12-.18,3.99.06,4.12.04.12.98-3.34.79-6.78,1.13-10.2,1.34,0,0-.03-2.13-.03-2.13h0Z"/>
              </g>
            </g>
            <g class="cls-53">
              <path class="cls-35" d="M300.25,245.91c3.12,23.53,2.86,47.23,1.91,70.88-.42,7.88-.92,15.75-1.91,23.63,0,0-1,0-1,0-2.65-23.54-2.99-47.24-2.08-70.88.39-7.88.94-15.75,2.08-23.63h1Z"/>
            </g>
            <path class="cls-38" d="M314.79,259.29l.71,12.57,1.42,22.3,3.83,17.3,3.79,11.43s.5-26.82-.12-36.55c-.62-9.72-9.63-27.06-9.63-27.06Z"/>
            <g class="cls-42">
              <path class="cls-19" d="M327.51,331.8c3.47,5.44,7.08,16.42,3.31,22.04.72-7.62-2.77-14.61-3.31-22.04h0Z"/>
            </g>
            <g class="cls-40">
              <path class="cls-19" d="M293.25,361.52c4.26.63,8.62.25,12.87-.28,0,0,.06.57.06.57-4.3,0-8.56-.28-12.92-.29h0ZM293.23,361.52c4.26-.01,8.63-.28,12.95-.29,0,0,.06.57.06.57-4.29.55-8.79.83-13.01-.28h0Z"/>
            </g>
            <path class="cls-15" d="M267.33,355.11l-1.5-3.47c-.03-.06-.68-1.58-.95-3.18-.33-1.92.72-4.5,4.02-9.86l4.65-7.56-2.86,8.41c-.86,2.54-2.27,6.76-2.38,7.29-.11.55-.41,3.06-.58,4.61l-.41,3.76Z"/>
            <path id="_眉間" data-name="眉間" class="cls-14" d="M316.28,226.22c1.69-2.35,6.81-6.28,9.27-7.5s12.28-4.92,12.28-4.92l-23.04,39.29s-.21-24.52,1.48-26.87Z"/>
            <path id="_ほうれい線" data-name="ほうれい線" class="cls-12" d="M334.52,363.8s2.34,12.08,5.82,17.03c3.49,4.94,10.05,11.81,10.05,11.81"/>
            <g id="_眼_ハイライト" data-name="眼_ハイライト">
              <ellipse class="cls-11" cx="372.57" cy="249.52" rx="4.36" ry="2.61"/>
              <ellipse class="cls-11" cx="244.73" cy="249.52" rx="4.36" ry="2.61"/>
            </g>
            <path class="cls-9" d="M368.1,54.45s35.29,14.63,53.98,37.89c18.69,23.26,22.53,51.92,22.53,51.92l-61.4-19.59-15.11-70.22Z"/>
            <path class="cls-9" d="M227.26,112.18c5.24,25.16,40.09,53.61,40.09,53.61,0,0,33.28,27.56,41.94,29.95s29.3,8.09,29.3,8.09l96.28,14.75,3.26-26.56s-2.34-20.86-3.26-33.14c-.93-12.28-8.92-49.59-31.45-74.31-22.53-24.72-44.88-50.02-75.9-55.45-31.02-5.42-56.09-8.35-77.52.06s-27.33,34.88-27.33,34.88l4.59,48.11Z"/>
            <path class="cls-9" d="M399.22,97.26l8.27,97.9,16.15,51.16s13.19,45.9,20.13,52.7c5.7,5.58,22.64-42.61,28.47-52.7s4.54-60.87,4.54-76.66-23.21-59.45-38.72-65.62c-15.51-6.17-38.84-6.77-38.84-6.77Z"/>
            <path class="cls-9" d="M239.28,35.74s-5.13,96.12-17.32,115.22c-12.19,19.1-23.74,26.43-34.65,41.87-10.91,15.43,1.28,26.53-19.25,48.09-20.53,21.57-25.66,36.45-25.66,36.45l-7.71-58.52,9.62-86.99,24.17-35.25s5.77-16.45,18.5-26.98c12.73-10.53,52.29-33.89,52.29-33.89Z"/>
            <path class="cls-9" d="M163.02,181.39l-25.86,47.26s-9.09-23.07-9.09-38.58,9.78-45.36,17.47-57.7c7.69-12.34,32.85-35.37,32.85-35.37l-6.9,29-8.48,55.38Z"/>
            <path class="cls-9" d="M213.89,89.66c-1.55-12.9-1.21-28.14,5.05-39.83,5.27-9.22,12.29-18.5,22.37-22.74,2.27-.84,4.69-1.68,7.16-1.43-.77.24-1.46.63-2.15,1-10.44,5.19-16.05,16.16-20.22,26.54-3.98,11.02-3.08,23.38-1.72,34.85,0,0-10.49,1.61-10.49,1.61h0Z"/>
            <path class="cls-9" d="M209.52,110.53c-7.19-10.82-13.76-24.57-13.44-37.83.55-10.61,2.64-22.05,9.73-30.38,1.65-1.77,3.43-3.61,5.75-4.5-.58.56-1.02,1.22-1.47,1.86-6.99,9.34-7.05,21.66-6.09,32.8,1.41,11.63,7.78,22.26,14.16,31.88,0,0-8.64,6.16-8.64,6.16h0Z"/>
            <path class="cls-9" d="M368.94,107.38c8.05-8.28,16.27-17.55,19.8-28.73,1.7-5.81,2.85-11.79,3.09-17.85.34-6.16-1.03-12.26-4.13-17.61,10.29,7.94,10.44,25.35,8.78,37.13-2.12,13.08-11.12,25.41-20.18,34.71,0,0-7.36-7.65-7.36-7.65h0Z"/>
            <path class="cls-9" d="M424.76,195.76c.33-.41.22-.3.29-.38-.75,1.15-2.06,2.95-3.05,4.31-2.94,8.33-2.44,18.38-3.01,27.17-.27,5.71.87,11.36,1.88,16.98,1.12,5.68,2.53,11.36,4,17.13-3.33-4.96-5.89-10.4-7.89-16.06-1.77-4.97-3.02-10.24-3.51-15.52-1.16-6.73-1.33-13.54-.7-20.35.34-3.83.75-7.82,1.7-11.68.03-2.63.18-5.42,1.66-7.74.11-.16.06-.12.44-.61l8.18,6.76h0Z"/>
            <path class="cls-9" d="M429.39,174.49c.42-.32.29-.23.37-.29-1.02.92-2.75,2.32-4.05,3.38-4.98,7.3-7.08,17.13-9.89,25.48-1.73,5.45-2.08,11.2-2.54,16.9-.38,5.78-.47,11.63-.53,17.58-1.94-5.65-3.02-11.57-3.5-17.55-.43-5.25-.29-10.68.6-15.9.61-6.8,2.2-13.42,4.55-19.84,1.32-3.61,2.73-7.36,4.64-10.86.71-2.53,1.57-5.19,3.59-7.05.15-.12.09-.1.58-.47l6.17,8.63h0Z"/>
            <path class="cls-9" d="M235.43,71.91c-7.74,17.92-15.51,39.13-14.25,58.85.69,6.81,2.64,13.44,4.03,20.14,1.07,4.58,2.11,9.17,3.28,13.74,1.12,4.59,2.62,9.03,3.39,13.82-2.93-3.9-4.71-8.33-6.76-12.63-1.98-4.34-3.9-8.71-5.63-13.15-2.52-6.86-5.61-13.65-6.69-20.93-2.24-17.37,2.18-34.55,7.61-50.74,1.63-4.66,3.35-9.05,5.42-13.61,0,0,9.61,4.51,9.61,4.51h0Z"/>
            <path class="cls-9" d="M419.64,103.22c20.9,10.15,55.27,30.1,64.51,52.09,6.41,16.09,7.91,36.55-3.78,50.6-4.33,4.65-9.04,9.21-14.97,11.65,5.05-3.5,9.28-8.32,12.92-13.2,3.28-5.03,4.88-10.99,5.21-16.89.63-10.06-2.31-19.99-6.69-28.97-.76-1.54-1.64-3.02-2.66-4.45-3.26-4.64-7.58-8.8-12.15-12.67-9.33-7.76-19.85-14.23-30.5-20.14-5.32-2.92-10.88-5.83-16.32-8.39,0,0,4.44-9.64,4.44-9.64h0Z"/>
            <path class="cls-9" d="M221.92,77.32c.05,21.22,1.14,50.53,11.3,69.25,6.13,9.68,14.93,18,25.33,22.89,5.27,2.42,11.12,3.84,16.98,3.46,4.47-.46,8.93-1.6,13.2-2.96,1.44-.49,2.87-1.02,4.21-1.77-2.35,2.03-5.22,3.37-8.09,4.54-2.87,1.12-5.96,2.1-8.98,2.75-19.39,3.41-38.74-9.35-49.73-24.54-9.97-16-12.61-36.7-14.23-55.06-.45-6.31-.69-12.44-.61-18.82,0,0,10.61.25,10.61.25h0Z"/>
            <path class="cls-9" d="M178.28,120.22c-16.77,13.05-46.13,37.36-50.99,58.28-3.58,14.81-3.03,32.46,8.07,44.04,3.31,3.11,7.18,5.85,11.07,8.25,1.33.79,2.7,1.54,4.16,2.09-6.26-1.19-11.83-4.76-16.94-8.42-15.54-12.48-17.96-36.96-12.22-54.97,7.63-19.88,27.04-38.21,42.97-51.8,2.47-2.04,4.9-3.99,7.54-5.99l6.32,8.52h0Z"/>
            <path class="cls-9" d="M335.66,106.43c-4.18,20.86-10.55,58.38-.57,77.44,6.95,13.55,18.9,26.57,34.87,28.08,4.54.2,9.26-.26,13.77-.98,1.53-.27,3.05-.59,4.52-1.14-5.51,3.19-12.06,4.12-18.33,4.69-19.87.72-37.77-16.3-45.15-33.66-7.2-20.04-4.47-46.59-1.28-67.3.54-3.16,1.11-6.23,1.8-9.46,0,0,10.35,2.32,10.35,2.32h0Z"/>
            <path class="cls-9" d="M339.04,144.69c4.84,17.91,12.76,42.21,27.09,54.51,12.98,10.99,30.02,19.45,47.43,16.41-6.56,5.66-22.04,3.36-29.86,1.02-7.4-2.23-14.41-5.75-20.79-10.08-2.2-1.45-4.41-3.11-6.33-4.89-11.24-10.87-17.94-25.45-23.33-39.85-1.75-4.87-3.24-9.57-4.52-14.65,0,0,10.32-2.47,10.32-2.47h0Z"/>
            <path class="cls-9" d="M269.03,34.68c21.86-7.72,60.08-18.1,82.16-9.17,15.93,6.7,31.45,19.95,33.37,38.06.31,6.28.29,12.9-2.1,18.8.33-1.53.44-3.08.5-4.63.31-11.67-1.23-20.45-9.36-29.26-6.5-7.15-15.17-11.97-24.22-15.15-1.96-.73-3.98-1.28-6.08-1.62-19.68-2.82-43.04,4.04-61.92,9.95-2.9.94-5.86,1.94-8.61,2.96l-3.74-9.93h0Z"/>
            <path class="cls-9" d="M229.26,63.26c1.18,15.61.24,30.93,1.34,46.4,1.33,7.83,2.53,15.61,4.47,23.41,0,0,6.12,23.55,6.12,23.55,0,0-.9.44-.9.44-5.01-6.59-9.33-13.58-13.26-20.87-4.45-8.64-9.67-17.34-9.02-27.75,1.09-15.56,4.87-30.71,10.26-45.34,0,0,.99.15.99.15h0Z"/>
            <path class="cls-9" d="M276.9,112.85c1.53,14.16,1.93,28.4,4.47,42.39,1.92,7.06,5.21,14.21,8.43,20.95,3.24,6.59,6.78,13.08,10.26,19.64,0,0-.82.57-.82.57-4.86-5.68-9.2-11.74-13.33-17.99-5.14-8-10.61-16.46-11.04-26.4-.99-13.07-.38-26.17,1.03-39.18,0,0,1,.01,1,.01h0Z"/>
            <path class="cls-9" d="M203.51,96.72c5.9,6.25,10.89,13.23,14.89,20.88,1.95,3.88,3.69,7.96,4.62,12.44,1.06,4.33.7,9.34-.26,13.65-1.77,8.43-4.7,16.39-7.58,24.44-2.9,7.96-6.02,15.82-9.51,23.54l-.94-.34,6.44-24.44c2.1-8.12,3.94-16.35,5.47-24.38.75-3.95,1.31-7.45.69-11.44-2.07-12.08-8.39-23.09-14.61-33.73,0,0,.78-.62.78-.62h0Z"/>
            <path class="cls-9" d="M190.86,156.53c5.3,11.8,9.42,26.25,7.05,39.2-2.32,11.03-6.36,22.95-15.71,29.99-1.31.92-2.72,1.86-4.32,2.21,1.22-1,2.15-2.26,3.16-3.45,3.02-3.41,4.86-7.62,6.16-11.96,1.7-5.79,2.57-11.78,2.88-17.79.42-11.65-4.04-23.07-8.75-33.55,0,0,9.53-4.66,9.53-4.66h0Z"/>
            <path class="cls-9" d="M146.68,206.99c-4.97,7.17-9.72,14.98-12.56,23.25-2.86,8.43-3.06,17.46-2.29,26.24.48,3.72,1.15,7.46,2.85,10.81.64,1.15,1.55,2.94,2.25,4.06.41.66.81,1.34,1.34,1.93-2.25-1-3.91-2.92-5.46-4.76-2.63-3.22-4.32-7.13-5.61-11.02-2.42-7.96-3.48-16.39-2.68-24.67,1.11-8.38,4.4-16.26,8.32-23.63,1.65-2.98,3.24-5.68,5.28-8.5,0,0,8.56,6.27,8.56,6.27h0Z"/>
            <path class="cls-9" d="M465.55,198.08c7.9,11.68,15.48,27.06,15.11,41.47-.69,11.67-3.2,24.37-11.48,33.16-1.91,1.86-3.97,3.79-6.55,4.65.69-.56,1.23-1.24,1.78-1.91,8.56-9.71,9.12-23.48,8.3-35.78-1.45-12.99-8.61-24.71-15.76-35.38,0,0,8.6-6.21,8.6-6.21h0Z"/>
            <path class="cls-9" d="M155.65,203.44c6.3,9.88,11.18,20.83,12.47,32.58.6,12.11-2.26,28.34-11.18,37.14-1.17,1.1-2.42,2.22-3.96,2.8,1.07-1.16,1.81-2.54,2.64-3.86,2.5-3.8,3.73-8.24,4.39-12.71.86-5.97.86-12.03.32-18.02-1.25-11.59-7.29-22.26-13.44-31.96,0,0,8.77-5.97,8.77-5.97h0Z"/>
            <path class="cls-9" d="M229.25,67.83c3.36,15.29,4.58,30.59,7.84,45.75,2.41,7.56,4.69,15.1,7.71,22.55,0,0,9.36,22.46,9.36,22.46,0,0-.83.56-.83.56-5.88-5.82-11.15-12.13-16.06-18.8-5.62-7.93-12.01-15.81-12.82-26.21-1.11-15.56.52-31.09,3.8-46.33,0,0,1,.01,1,.01h0Z"/>
            <path class="cls-9" d="M233.83,96.48c4.07,13.3,7.62,26.82,14.65,38.79,6.72,9.62,14.25,18.68,21.71,27.86,5.55,6.68,11.13,13.36,16.64,20.11,0,0-.72.69-.72.69-3.26-2.91-6.45-5.88-9.6-8.9-9.43-9.14-18.78-18.33-27.31-28.34-2.14-2.61-4.21-5.29-5.97-8.23-2.77-4.99-4.61-10.44-6.09-15.81-2.29-8.51-3.74-17.22-4.3-26.02,0,0,.99-.16.99-.16h0Z"/>
            <path class="cls-9" d="M236.7,38.05c9.62-9.1,20.63-17.42,33.68-20.68,9.92-2.09,24.64-4.59,33.42,1.66,1.24,1,2.76,2.51,2.51,4.25-.33-.75-.97-1.18-1.56-1.6-8.93-5.57-23.52-2.89-33.09.23-5.55,1.89-10.42,5.6-14.87,9.64-4.36,4.02-8.51,8.61-12,13.37,0,0-8.08-6.88-8.08-6.88h0Z"/>
            <path class="cls-9" d="M385.77,64.85c13.7,3.83,29.43,9.41,39.41,19.96,6.83,8.59,13.69,20.87,10.1,32.12-1.15,2.91-3.06,6.27-6.33,7.02,9.82-10.11,1.66-26.3-6.47-34.9-8.85-8.74-26.48-12.12-38.57-13.75,0,0,1.86-10.45,1.86-10.45h0Z"/>
            <path class="cls-31" d="M248.23,132.09c3.64,6.86,9.66,12.35,14.95,17.97,16.54,16.98,36.53,29.96,55.93,43.43-7.04-3.65-13.89-7.66-20.62-11.88-16.7-10.68-33.44-22.41-45.17-38.68-1.42-2.06-2.79-4.21-3.88-6.47-.63-1.4-1.25-2.78-1.45-4.32,0,0,.25-.04.25-.04h0Z"/>
            <path class="cls-31" d="M276.18,144.9c4.09,6.6,10.46,11.68,16.12,16.93,17.65,15.83,38.46,27.45,58.72,39.58-7.27-3.17-14.38-6.71-21.37-10.47-17.37-9.53-34.87-20.12-47.67-35.57-1.55-1.96-3.06-4.02-4.31-6.2-.72-1.35-1.44-2.69-1.74-4.22,0,0,.24-.06.24-.06h0Z"/>
            <path class="cls-31" d="M304.34,158.42c4.61,6.25,11.37,10.8,17.43,15.58,18.86,14.36,40.54,24.27,61.71,34.73-7.5-2.58-14.87-5.54-22.14-8.72-18.08-8.11-36.37-17.26-50.37-31.62-1.7-1.82-3.38-3.76-4.79-5.83-.83-1.29-1.65-2.56-2.07-4.06,0,0,.24-.08.24-.08h0Z"/>
            <path class="cls-31" d="M166.58,116.07c-4.19,4.47-7.1,9.99-10.23,15.22-9.55,15.94-15.34,33.65-21.66,51.05,2.39-12.25,5.9-24.24,10.53-35.85,2.93-7.27,6.55-14.33,11.16-20.7,2.35-3.16,4.89-6.27,8.04-8.68.63-.48,1.29-.93,2.04-1.26,0,0,.12.22.12.22h0Z"/>
            <path class="cls-31" d="M162.54,137.24c-3.91,4.71-6.49,10.4-9.3,15.81-8.57,16.49-13.29,34.52-18.55,52.26,1.65-12.37,4.44-24.55,8.35-36.42,2.49-7.44,5.68-14.7,9.89-21.33,2.16-3.3,4.5-6.55,7.5-9.15.6-.52,1.23-1.01,1.96-1.38,0,0,.13.21.13.21h0Z"/>
            <path class="cls-31" d="M182.21,194.42c-3.9,11.42-4.91,23.31-6.75,35.17-1.66-8.69-1.4-30.31,6.75-35.17h0Z"/>
            <path class="cls-31" d="M140.21,223.31c1.76,6.97,1.14,14.29,1.05,21.36-.18,7.12.04,14.35-1.33,21.39-.77-10.68-2.18-21.38-1.58-32.1.2-3.55.6-7.1,1.62-10.65,0,0,.25,0,.25,0h0Z"/>
            <path class="cls-31" d="M409.89,82.5c16.57,10.14,26.61,53.32,29.94,72.14-5.92-18.08-11.6-38.34-20.17-55.26-3.06-5.64-5.51-11.89-9.87-16.65,0,0,.1-.23.1-.23h0Z"/>
            <path class="cls-31" d="M359.87,45.46c18.46,6.07,38.11,45.81,45.67,63.36-9.91-16.24-20.08-34.67-32.29-49.17-4.27-4.79-8.09-10.32-13.42-13.94,0,0,.04-.24.04-.24h0Z"/>
            <path class="cls-31" d="M341.88,38.08c16.5,5.31,31.44,34.24,37.82,49.62-6.65-10.43-14.24-22.97-21.86-32.56-2.45-2.97-5.07-5.9-7.66-8.77-2.64-2.82-5.18-5.84-8.37-8.05,0,0,.06-.24.06-.24h0Z"/>
            <path class="cls-31" d="M409.89,99.09c16.57,10.14,26.61,53.32,29.94,72.14-5.92-18.08-11.6-38.34-20.17-55.26-3.06-5.64-5.51-11.89-9.87-16.65,0,0,.1-.23.1-.23h0Z"/>
            <path class="cls-31" d="M444.82,111.68c16.57,10.14,26.61,53.32,29.94,72.14-5.92-18.08-11.6-38.34-20.17-55.26-3.06-5.64-5.51-11.89-9.87-16.65,0,0,.1-.23.1-.23h0Z"/>
            <path class="cls-31" d="M455.41,148.87c15.16,12.15,19.65,56.26,20.58,75.34-3.59-18.68-6.66-39.5-13.02-57.37-2.32-5.98-3.96-12.49-7.69-17.76,0,0,.13-.21.13-.21h0Z"/>
            <path class="cls-31" d="M465.63,198.27c9.81,13.33,2.57,51.11-1.34,66.84,0,0,1.55-16.81,1.55-16.81.96-11.11,1.95-22.28,1.36-33.42-.22-4.12-.36-8.33-.86-12.43-.2-1.35-.36-2.77-.88-4.01l.18-.17h0Z"/>
            <path class="cls-31" d="M456.79,218.65c9.81,13.33,2.57,51.11-1.34,66.84,0,0,1.55-16.81,1.55-16.81.96-11.11,1.95-22.28,1.36-33.42-.22-4.12-.36-8.33-.86-12.43-.2-1.35-.36-2.77-.88-4.01,0,0,.18-.17.18-.17h0Z"/>
            <path class="cls-31" d="M424.99,229.13c3.82,8.88,7.2,22.22,9.87,31.59,2.98,10.64,5.94,21.28,8.45,32.05-5.21-12.82-9.68-25.91-13.67-39.15-1.59-5.31-3.13-10.64-4.06-16.11-.45-2.74-.86-5.5-.85-8.34,0,0,.25-.04.25-.04h0Z"/>
            <path class="cls-31" d="M232.5,46.56c-3.11,1.44-5.92,3.41-8.77,5.3-3.77,2.54-7.56,5.07-11.14,7.85-7.38,5.82-16.2,14.21-23.18,20.64,8.96-12.08,19.52-23.71,32.94-30.86,3.18-1.53,6.52-3.09,10.12-3.19,0,0,.03.25.03.25h0Z"/>
          </g>
        </g>
      </g>
    </g>
  </g>
</svg>